# xmcd CD database file
#
# Track frame offsets:
#	150
#	10944
#	20792
#	30576
#	40148
#	49165
#	58934
#	68602
#	78516
#	89108
#	99740
#	108835
#	118211
#	130336
#	138675
#	147633
#	156740
#	166768
#	176397
#	189482
#	201814
#	211909
#	222623
#	234365
#
# Disc length: 3299 seconds
#
# Revision: 2
# Processed by: cddbd v1.5.2PL0 Copyright (c) Steve Scherf et al.
# Submitted via: CDex 1.51
#
DISCID=6c0ce118
DTITLE=Slim Whitman - Yodeling (1963) - Country Songs/City Hits (1964)
DYEAR=2001
DGENRE=Country
TTITLE0=Chimebells
TTITLE1=Would You String Along With Me
TTITLE2=Hi Lili, Hi Lo
TTITLE3=Cowboy's Heaven
TTITLE4=Weary And Blue
TTITLE5=Sioux City Sue
TTITLE6=Mockin' Bird Hill
TTITLE7=Gonna Find Me A Blue Bird
TTITLE8=Swiss Lullaby
TTITLE9=Over The Hill
TTITLE10=My Little Lady
TTITLE11=Rainbow On The Rio Colorado
TTITLE12=It Keeps Right On A-Hurtin'
TTITLE13=You're The Reason
TTITLE14=Ramblin' Rose
TTITLE15=A Little Bitty Tear
TTITLE16=Born To Lose
TTITLE17=From A Jack To A King
TTITLE18=I'll Hold You In My Heart
TTITLE19=I Fall To Pieces
TTITLE20=I Can't Stop Loving You
TTITLE21=No Other Arms, No Other Lips
TTITLE22=Bouquet Of Roses
TTITLE23=Just Out Of Reach
EXTD=YEAR: 2001
EXTT0=
EXTT1=
EXTT2=
EXTT3=
EXTT4=
EXTT5=
EXTT6=
EXTT7=
EXTT8=
EXTT9=
EXTT10=
EXTT11=
EXTT12=
EXTT13=
EXTT14=
EXTT15=
EXTT16=
EXTT17=
EXTT18=
EXTT19=
EXTT20=
EXTT21=
EXTT22=
EXTT23=
PLAYORDER=
